<?xml version="1.0" encoding="iso-8859-1"?>
<!-- Uploaded to: SVG Repo, www.svgrepo.com, Generator: SVG Repo Mixer Tools -->
<svg fill="#000000" height="800px" width="800px" version="1.1" id="Layer_1" xmlns="http://www.w3.org/2000/svg" xmlns:xlink="http://www.w3.org/1999/xlink" 
	 viewBox="0 0 512 512" xml:space="preserve">
<g>
	<g>
		<path d="M427.023,111.165c-4.428,0-8.017,3.589-8.017,8.017V487.95c0,4.421-3.596,8.017-8.017,8.017H101.01
			c-4.421,0-8.017-3.596-8.017-8.017v-69.478c0-4.427-3.589-8.017-8.017-8.017s-8.017,3.589-8.017,8.017v69.478
			c0,13.262,10.788,24.05,24.05,24.05H410.99c13.261,0,24.05-10.788,24.05-24.05V119.182
			C435.04,114.754,431.451,111.165,427.023,111.165z"/>
	</g>
</g>
<g>
	<g>
		<path d="M410.99,0H101.01C87.749,0,76.96,10.788,76.96,24.05v343.115c0,4.427,3.589,8.017,8.017,8.017s8.017-3.589,8.017-8.017
			V24.05c0-4.421,3.596-8.017,8.017-8.017H410.99c4.421,0,8.017,3.596,8.017,8.017v52.376c0,4.427,3.588,8.017,8.017,8.017
			c4.428,0,8.017-3.589,8.017-8.017V24.05C435.04,10.788,424.25,0,410.99,0z"/>
	</g>
</g>
<g>
	<g>
		<path d="M392.818,34.205H119.182c-4.427,0-8.017,3.589-8.017,8.017v162.472c0,4.427,3.589,8.017,8.017,8.017h273.637
			c4.428,0,8.017-3.589,8.017-8.017V42.221C400.835,37.794,397.247,34.205,392.818,34.205z M384.802,196.676H127.198V50.238h257.603
			V196.676z"/>
	</g>
</g>
<g>
	<g>
		<path d="M392.818,230.881H273.102c-4.428,0-8.017,3.589-8.017,8.017v102.614c0,4.427,3.588,8.017,8.017,8.017h119.716
			c4.428,0,8.017-3.589,8.017-8.017V238.898C400.835,234.47,397.247,230.881,392.818,230.881z M384.802,333.495H281.119v-86.58
			h103.683V333.495z"/>
	</g>
</g>
<g>
	<g>
		<path d="M238.898,230.881H119.182c-4.427,0-8.017,3.589-8.017,8.017v102.614c0,4.427,3.589,8.017,8.017,8.017h119.716
			c4.427,0,8.017-3.589,8.017-8.017V238.898C246.914,234.47,243.325,230.881,238.898,230.881z M230.881,333.495H127.198v-86.58
			h103.683V333.495z"/>
	</g>
</g>
<g>
	<g>
		<path d="M392.818,359.148H273.102c-4.428,0-8.017,3.589-8.017,8.017v102.614c0,4.427,3.588,8.017,8.017,8.017h119.716
			c4.428,0,8.017-3.589,8.017-8.017V367.165C400.835,362.738,397.247,359.148,392.818,359.148z M384.802,461.762H281.119v-86.58
			h103.683V461.762z"/>
	</g>
</g>
<g>
	<g>
		<path d="M238.898,359.148H119.182c-4.427,0-8.017,3.589-8.017,8.017v102.614c0,4.427,3.589,8.017,8.017,8.017h119.716
			c4.427,0,8.017-3.589,8.017-8.017V367.165C246.914,362.738,243.325,359.148,238.898,359.148z M230.881,461.762H127.198v-86.58
			h103.683V461.762z"/>
	</g>
</g>
<g>
	<g>
		<path d="M204.693,282.188h-17.637v-17.637c0-4.427-3.589-8.017-8.017-8.017s-8.017,3.589-8.017,8.017v17.637h-17.637
			c-4.427,0-8.017,3.589-8.017,8.017s3.589,8.017,8.017,8.017h17.637v17.637c0,4.427,3.589,8.017,8.017,8.017
			s8.017-3.589,8.017-8.017v-17.637h17.637c4.427,0,8.017-3.589,8.017-8.017S209.12,282.188,204.693,282.188z"/>
	</g>
</g>
<g>
	<g>
		<path d="M358.614,282.188h-51.307c-4.428,0-8.017,3.589-8.017,8.017s3.588,8.017,8.017,8.017h51.307
			c4.428,0,8.017-3.589,8.017-8.017S363.042,282.188,358.614,282.188z"/>
	</g>
</g>
<g>
	<g>
		<path d="M190.376,418.472l19.985-19.985c3.131-3.13,3.131-8.207,0-11.337c-3.131-3.131-8.207-3.131-11.337,0l-19.985,19.985
			l-19.985-19.985c-3.131-3.131-8.207-3.131-11.337,0c-3.131,3.131-3.131,8.207,0,11.337l19.985,19.985l-19.985,19.985
			c-2.919,2.918-3.113,7.74-0.427,10.877c2.998,3.501,8.502,3.721,11.763,0.46l19.985-19.985l19.985,19.985
			c3.261,3.261,8.765,3.041,11.763-0.46c2.687-3.137,2.493-7.959-0.427-10.877L190.376,418.472z"/>
	</g>
</g>
<g>
	<g>
		<path d="M364.283,387.15c-3.132-3.131-8.207-3.131-11.338,0l-51.307,51.307c-4.939,4.938-1.343,13.685,5.668,13.685
			c2.051,0,4.103-0.782,5.669-2.348l51.307-51.307C367.414,395.356,367.414,390.28,364.283,387.15z"/>
	</g>
</g>
<g>
	<g>
		<path d="M321.527,395.701l-8.551-8.551c-3.132-3.131-8.207-3.131-11.338,0c-3.131,3.131-3.131,8.207,0,11.337l8.55,8.551
			c3.261,3.26,8.766,3.041,11.764-0.46C324.639,403.441,324.446,398.619,321.527,395.701z"/>
	</g>
</g>
<g>
	<g>
		<path d="M364.284,438.457l-8.552-8.551c-3.132-3.131-8.207-3.131-11.338,0c-3.131,3.131-3.131,8.207,0,11.337l8.551,8.551
			c3.261,3.26,8.766,3.041,11.764-0.46C367.396,446.197,367.202,441.375,364.284,438.457z"/>
	</g>
</g>
<g>
	<g>
		<path d="M364.283,113.513l-51.307-51.307c-3.132-3.131-8.207-3.131-11.338,0l-51.307,51.307c-1.504,1.503-2.348,3.542-2.348,5.668
			v59.858c0,4.427,3.589,8.017,8.017,8.017h34.205c4.428,0,8.017-3.589,8.017-8.017v-26.188h18.171v26.188
			c0,4.427,3.588,8.017,8.017,8.017h34.205c4.428,0,8.017-3.589,8.017-8.017v-59.858
			C366.63,117.056,365.786,115.016,364.283,113.513z M350.597,171.023h-18.171v-26.188c0-4.427-3.588-8.017-8.017-8.017h-34.205
			c-4.428,0-8.017,3.589-8.017,8.017v26.188h-18.171v-48.521l43.29-43.29l43.29,43.29V171.023z"/>
	</g>
</g>
<g>
	<g>
		<path d="M218.913,70.758c-3.131-3.131-8.207-3.131-11.337,0l-64.134,64.134c-4.939,4.937-1.343,13.685,5.668,13.685
			c2.051,0,4.103-0.782,5.668-2.348l64.134-64.134C222.043,78.963,222.043,73.887,218.913,70.758z"/>
	</g>
</g>
<g>
	<g>
		<path d="M227.464,122.064c-3.131-3.131-8.207-3.131-11.337,0l-25.653,25.653c-2.919,2.918-3.113,7.74-0.427,10.877
			c2.998,3.501,8.502,3.721,11.763,0.46l25.653-25.653C230.595,130.27,230.595,125.194,227.464,122.064z"/>
	</g>
</g>
</svg>