<?xml version="1.0" encoding="iso-8859-1"?>
<!-- Uploaded to: SVG Repo, www.svgrepo.com, Generator: SVG Repo Mixer Tools -->
<svg height="800px" width="800px" version="1.1" id="Layer_1" xmlns="http://www.w3.org/2000/svg" xmlns:xlink="http://www.w3.org/1999/xlink" 
	 viewBox="0 0 512 512" xml:space="preserve">
<g transform="translate(1 1)">
	<path style="fill:#FFE100;" d="M502.467,255c0,136.533-110.933,247.467-247.467,247.467S7.533,391.533,7.533,255
		S118.467,7.533,255,7.533S502.467,118.467,502.467,255"/>
	<path style="fill:#FFA800;" d="M255,7.533c-4.267,0-8.533,0-12.8,0C372.76,14.36,476.867,122.733,476.867,255
		S372.76,495.64,242.2,502.467c4.267,0,8.533,0,12.8,0c136.533,0,247.467-110.933,247.467-247.467S391.533,7.533,255,7.533"/>
	<path style="fill:#FFFFFF;" d="M255,7.533c4.267,0,8.533,0,12.8,0C137.24,14.36,33.133,122.733,33.133,255
		S137.24,495.64,267.8,502.467c-4.267,0-8.533,0-12.8,0C118.467,502.467,7.533,391.533,7.533,255S118.467,7.533,255,7.533"/>
	<path style="fill:#63D3FD;" d="M138.947,306.2c-9.387,0-14.507,10.24-9.387,17.92c27.307,40.96,72.533,67.413,125.44,67.413
		s98.133-26.453,126.293-67.413c5.12-7.68,0-17.92-9.387-17.92H138.947z"/>
	<path style="fill:#E4667F;" d="M289.133,340.333c-12.8,0-24.747,5.12-34.133,12.8c-9.387-8.533-21.333-12.8-34.133-12.8
		c-19.627,0-37.547,11.947-46.08,28.16c23.04,14.507,50.347,23.04,80.213,23.04s57.173-8.533,80.213-23.04
		C326.68,352.28,308.76,340.333,289.133,340.333"/>
	<path d="M255,511C114.2,511-1,395.8-1,255S114.2-1,255-1s256,115.2,256,256S395.8,511,255,511z M255,16.067
		C123.587,16.067,16.067,123.587,16.067,255S123.587,493.933,255,493.933S493.933,386.413,493.933,255S386.413,16.067,255,16.067z"
		/>
	<path d="M255,400.067c-52.907,0-103.253-26.453-133.12-70.827c-4.267-5.973-4.267-14.507-0.853-20.48
		c3.413-6.827,10.24-10.24,17.92-10.24h232.96c7.68,0,14.507,4.267,17.92,10.24c3.413,6.827,3.413,14.507-0.853,20.48
		C358.253,373.613,307.907,400.067,255,400.067z M138.947,314.733c-1.707,0-2.56,0.853-2.56,1.707c0,0.853-0.853,1.707,0,3.413
		C162.84,359.107,207.213,383,255,383s92.16-23.893,118.613-63.147c0.853-1.707,0.853-2.56,0-3.413c0-0.853-0.853-1.707-2.56-1.707
		H138.947L138.947,314.733z"/>
	<path d="M161.133,220.867c-18.773,0-34.133-15.36-34.133-34.133c0-5.12,3.413-8.533,8.533-8.533s8.533,3.413,8.533,8.533
		c0,9.387,7.68,17.067,17.067,17.067s17.067-7.68,17.067-17.067c0-9.387-7.68-17.067-17.067-17.067
		c-18.773,0-34.133-15.36-34.133-34.133s15.36-34.133,34.133-34.133s34.133,15.36,34.133,34.133c0,5.12-3.413,8.533-8.533,8.533
		c-5.12,0-8.533-3.413-8.533-8.533c0-9.387-7.68-17.067-17.067-17.067s-17.067,7.68-17.067,17.067s7.68,17.067,17.067,17.067
		c18.773,0,34.133,15.36,34.133,34.133S179.907,220.867,161.133,220.867z"/>
	<path d="M161.133,118.467c-5.12,0-8.533-3.413-8.533-8.533V92.867c0-5.12,3.413-8.533,8.533-8.533c5.12,0,8.533,3.413,8.533,8.533
		v17.067C169.667,115.053,166.253,118.467,161.133,118.467z"/>
	<path d="M161.133,237.933c-5.12,0-8.533-3.413-8.533-8.533v-17.067c0-5.12,3.413-8.533,8.533-8.533c5.12,0,8.533,3.413,8.533,8.533
		V229.4C169.667,234.52,166.253,237.933,161.133,237.933z"/>
	<path d="M348.867,220.867c-18.773,0-34.133-15.36-34.133-34.133c0-5.12,3.413-8.533,8.533-8.533s8.533,3.413,8.533,8.533
		c0,9.387,7.68,17.067,17.067,17.067s17.067-7.68,17.067-17.067c0-9.387-7.68-17.067-17.067-17.067
		c-18.773,0-34.133-15.36-34.133-34.133s15.36-34.133,34.133-34.133S383,116.761,383,135.534c0,5.12-3.413,8.533-8.533,8.533
		s-8.533-3.413-8.533-8.533c0-9.387-7.68-17.067-17.067-17.067s-17.067,7.68-17.067,17.067s7.68,17.067,17.067,17.067
		c18.773,0,34.133,15.36,34.133,34.133S367.64,220.867,348.867,220.867z"/>
	<path d="M348.867,118.467c-5.12,0-8.533-3.413-8.533-8.533V92.867c0-5.12,3.413-8.533,8.533-8.533s8.533,3.413,8.533,8.533v17.067
		C357.4,115.053,353.987,118.467,348.867,118.467z"/>
	<path d="M348.867,237.933c-5.12,0-8.533-3.413-8.533-8.533v-17.067c0-5.12,3.413-8.533,8.533-8.533s8.533,3.413,8.533,8.533V229.4
		C357.4,234.52,353.987,237.933,348.867,237.933z"/>
	<path d="M255,400.067c-29.867,0-58.88-8.533-84.48-23.893c-3.413-2.56-5.12-6.827-3.413-11.093
		c10.24-20.48,30.72-33.28,53.76-33.28c11.947,0,23.893,3.413,34.133,11.093c10.24-6.827,22.187-11.093,34.133-11.093
		c23.04,0,43.52,12.8,53.76,33.28c1.707,4.267,0.853,8.533-3.413,11.093C313.88,391.533,284.867,400.067,255,400.067z
		 M186.733,365.933c41.813,22.187,94.72,22.187,135.68,0c-7.68-10.24-20.48-17.067-34.133-17.067c-10.24,0-20.48,4.267-28.16,11.093
		c-3.413,2.56-8.533,2.56-11.093,0c-7.68-6.827-17.92-11.093-28.16-11.093C207.213,348.867,195.267,355.693,186.733,365.933z"/>
</g>
</svg>